<?xml version="1.0" encoding="UTF-8"?>
<svg id="Layer_1" data-name="Layer 1" xmlns="http://www.w3.org/2000/svg" viewBox="0 0 1248 1569.6">
  <defs>
    <style>
      .cls-1 {
        fill: #000b38;
      }

      .cls-2 {
        fill: #96ff00;
      }
    </style>
  </defs>
  <path class="cls-2" d="M607.02,506.88c154.53-10.18,286.89,107.58,297.04,260.08,10.21,153.53-106.28,286.72-259.31,297.3-153.54,10.61-286.81-105.31-297.92-258.6-11.13-153.54,105.08-288.56,260.19-298.77Z"/>
  <path class="cls-1" d="M613.02,532.17c140.73-6.86,259.04,102.28,265.72,241.07s-100.94,258.41-240.03,265.71c-139.64,7.33-258.84-99.89-266.65-239.29-7.82-139.65,99.77-260.6,240.95-267.48Z"/>
  <path class="cls-2" d="M655.56,695.94c-78.94,51.6-92.47,156.56-41.21,232.83,5.44,8.1,12.06,14.85,15.81,24.89-29.46-15.53-52.51-39.32-67.33-68.04-9.52-18.44-14.53-37.3-18.08-57.68-12.84-73.77,21.63-135.28,78.32-181.49l-14.91-28.42,17.69.41,83.93,7.86-27.43,86.02c-1.21,3.8-2.29,6.89-4.98,10.19l-21.83-26.56Z"/>
</svg>